######## ######## ######## ##          ######## ########  ######## ######## 
##       ##       ##       ##          ##       ##     ## ##       ##       
##       ##       ##       ##          ##       ##     ## ##       ##       
######   ######   ######   ##          ######   ########  ######   ######   
##       ##       ##       ##          ##       ##   ##   ##       ##       
##       ##       ##       ##          ##       ##    ##  ##       ##       
##       ######## ######## ########    ##       ##     ## ######## ######## 
 

Genre:Mystery | Thriller 
 Language:English
 IMDb:http://www.imdb.com/title/tt1307873/
 Source:BluRay x264-DEVERSiFY
 Subtitles:Romana

 Format : MPEG-4
 Format profile : Base Media
 Codec ID : isom
 File size : 2.44 GiB
 Duration : 1h 41mn
 Overall bit rate : 3 448 Kbps

 Video
 ID : 1
 Format : AVC
 Format/Info : Advanced Video Codec
 Format profile : High@L4.1
 Format settings, CABAC : Yes
 Format settings, ReFrames : 3 frames
 Codec ID : avc1
 Codec ID/Info : Advanced Video Coding
 Duration : 1h 41mn
 Bit rate mode : Variable
 Bit rate : 3 000 Kbps
 Maximum bit rate : 17.1 Mbps
 Width : 1 280 pixels
 Height : 544 pixels
 Display aspect ratio : 2.35:1
 Frame rate mode : Constant
 Frame rate : 23.976 fps
 Color space : YUV
 Chroma subsampling : 4:2:0
 Bit depth : 8 bits
 Scan type : Progressive
 Bits/(Pixel*Frame) : 0.180
 Stream size : 2.13 GiB (87%)
 Writing library : x264 

 Audio
 ID : 2
 Format : AAC
 Format/Info : Advanced Audio Codec
 Format version : Version 4
 Format profile : LC
 Format settings, SBR : No
 Codec ID : 40
 Duration : 1h 41mn
 Bit rate mode : Variable
 Bit rate : 436 Kbps
 Maximum bit rate : 577 Kbps
 Channel(s) : 6 channels
 Channel positions : Front: L C R, Side: L R, LFE
 Sampling rate : 48.0 KHz
 Stream size : 316 MiB (13%)


 Plot:
 A private detective is hired to find a missing stripper. A simple job turns complicated when everyone he questions ends up dead.



Greets:

 INK,CRYS,IMAGINE,LKRG,FXG,3Li,FLAWL3SS,TA,iLLUSiON,ViSiON,DTRG SAFCuk009,LU,TheFalcon007,MYSTiC,PrisM,Noir,WBZ,LAP,Rx,Kingdom,SAFCuk009+Fabreezy,HDLiTE,TWiZTED,ExtraTorrentRG.ELEKTRI4KA,MAGNAT,CM8
 And to all the other p2p grps past and present





----------------------------------                     
http://thepiratebay.org/user/hiest
----------------------------------





Screenshots:
 
http://www.pix2links.com/images/24671753035270842805.png
 
http://www.pix2links.com/images/46317644373185057021.png
 
http://www.pix2links.com/images/23114495673245962716.png
 
http://www.pix2links.com/images/70598131722434394352.png



######## ######## ######## ##          ######## ########  ######## ######## 
##       ##       ##       ##          ##       ##     ## ##       ##       
##       ##       ##       ##          ##       ##     ## ##       ##       
######   ######   ######   ##          ######   ########  ######   ######   
##       ##       ##       ##          ##       ##   ##   ##       ##       
##       ##       ##       ##          ##       ##    ##  ##       ##       
##       ######## ######## ########    ##       ##     ## ######## ######## 
